<svg width="18" height="18" viewBox="0 0 18 18" fill="none" xmlns="http://www.w3.org/2000/svg">
<g clip-path="url(#clip0)">
<path d="M8.99996 12C8.84621 12 8.69921 11.937 8.59346 11.826L4.65596 7.701C4.31471 7.344 4.56821 6.75 5.06246 6.75H7.12496V2.4375C7.12496 1.92075 7.54571 1.5 8.06246 1.5H9.93746C10.4542 1.5 10.875 1.92075 10.875 2.4375V6.75H12.9375C13.4317 6.75 13.6852 7.344 13.344 7.701L9.40646 11.826C9.30071 11.937 9.15371 12 8.99996 12Z" fill="white"/>
<path d="M16.6875 16.5H1.3125C0.58875 16.5 0 15.9112 0 15.1875V14.8125C0 14.0887 0.58875 13.5 1.3125 13.5H16.6875C17.4112 13.5 18 14.0887 18 14.8125V15.1875C18 15.9112 17.4112 16.5 16.6875 16.5Z" fill="white"/>
</g>
<defs>
<clipPath id="clip0">
<rect width="18" height="18" fill="white"/>
</clipPath>
</defs>
</svg>
